<?xml version="1.0" standalone="no"?>
<!DOCTYPE svg PUBLIC "-//W3C//DTD SVG 20010904//EN"
 "http://www.w3.org/TR/2001/REC-SVG-20010904/DTD/svg10.dtd">
<svg version="1.0" xmlns="http://www.w3.org/2000/svg"
 width="500.000000pt" height="500.000000pt" viewBox="0 0 500.000000 500.000000"
 preserveAspectRatio="xMidYMid meet">
<metadata>
Created by potrace 1.14, written by Peter Selinger 2001-2017
</metadata>
<g transform="translate(0.000000,500.000000) scale(0.100000,-0.100000)"
fill="#000000" stroke="none">
<path d="M1464 4689 c0 -171 -3 -313 -7 -316 -5 -3 -186 -6 -403 -6 -269 -1
-394 -4 -395 -11 0 -6 -1 -928 -1 -2049 0 -1885 -1 -2038 -16 -2045 -10 -4
-59 -8 -110 -7 l-92 1 0 -128 0 -128 2060 0 2061 0 -3 128 -3 127 -105 0 -105
1 -1 2054 0 2055 -398 1 c-255 1 -401 6 -405 12 -3 6 -6 148 -5 316 l1 306
-1037 0 -1038 0 2 -311z m23 -2630 c2 -41 13 -100 24 -133 17 -47 20 -73 16
-135 -3 -42 -8 -87 -10 -101 -3 -14 -8 -56 -11 -95 -3 -38 -9 -83 -14 -100 -5
-16 -8 -38 -6 -47 1 -10 -1 -18 -6 -18 -4 0 -6 -10 -3 -22 4 -14 2 -20 -3 -15
-13 12 -12 748 0 744 6 -2 12 -37 13 -78z m1043 -393 c0 -3 -4 -8 -10 -11 -5
-3 -10 -1 -10 4 0 6 5 11 10 11 6 0 10 -2 10 -4z m1000 -86 c0 -5 -2 -10 -4
-10 -3 0 -8 5 -11 10 -3 6 -1 10 4 10 6 0 11 -4 11 -10z m-995 -100 c-2 -4 2
-7 10 -7 8 0 12 3 10 7 -2 4 9 7 26 8 16 0 27 -4 24 -9 -4 -5 3 -9 15 -9 12 0
18 -4 15 -10 -3 -5 0 -10 7 -10 10 0 10 -2 -1 -9 -8 -5 -24 -8 -37 -6 l-24 2
0 -588 0 -587 -76 -4 c-42 -2 -78 -1 -80 1 -2 3 -4 271 -4 596 l1 591 21 1
c12 1 24 7 28 14 4 6 12 9 18 5 5 -3 12 0 15 7 3 8 12 14 21 14 8 0 13 -3 11
-7z m-992 -989 c16 -6 25 -16 22 -22 -4 -5 -4 -25 -1 -44 6 -31 10 -34 61 -45
30 -6 68 -9 85 -6 41 6 57 -13 54 -65 -1 -24 -2 -47 -3 -50 -1 -4 -166 -4
-284 0 -16 1 -17 10 -13 89 2 48 5 103 5 123 1 32 4 36 24 34 12 -2 35 -8 50
-14z m1984 -35 c0 -6 3 -53 7 -103 5 -84 4 -93 -12 -94 -9 0 -77 -1 -151 -2
l-134 -2 -3 27 c-3 28 17 57 39 59 7 0 21 2 32 4 11 2 44 6 73 8 68 6 88 24
91 85 1 6 10 12 22 12 11 0 18 4 15 8 -3 5 1 9 8 9 7 0 13 -5 13 -11z"/>
</g>
</svg>
